<svg xmlns="http://www.w3.org/2000/svg" version="1.1" xmlns:xlink="http://www.w3.org/1999/xlink" xmlns:svgjs="http://svgjs.dev/svgjs" width="28" height="22"><svg width="28" height="22" viewBox="0 0 28 22" fill="none" xmlns="http://www.w3.org/2000/svg">
  <path d="M11.9532 0.637024L12.5281 4.2839e-05H6.24372L0 6.85527H6.33676L11.9532 0.637024ZM7.84114 6.85574H19.7101L16.4834 3.28194L13.7763 0.284008L9.68536 4.8133L7.84114 6.85574ZM0.0759366 7.94175L11.8759 19.7656L6.23297 7.94175H0.0759366ZM20.0676 7.94085H19.0392L14.7156 7.94175H7.48365L13.7386 21.047L13.7788 21.1304L19.7385 8.63282L20.0676 7.94085ZM15.6897 19.7488L27.4709 7.94222H21.3193L15.6897 19.7488ZM27.5478 6.85527L21.3021 0H15.0222L21.213 6.85527H27.5478Z" fill="#FFE03C"></path>
</svg><style>@media (prefers-color-scheme: light) { :root { filter: none; } }
@media (prefers-color-scheme: dark) { :root { filter: none; } }
</style></svg>